<svg xmlns="http://www.w3.org/2000/svg" width="211" height="35" viewBox="0 0 211 35"><rect class="svg__rect" x="0" y="0" width="95.75" height="35" fill="#31C4F3"/><rect class="svg__rect" x="93.75" y="0" width="117.25" height="35" fill="#389AD5"/><path class="svg__text" d="M16.26 18.86L13.39 13.47L15.04 13.47L17.00 17.51L18.96 13.47L20.60 13.47L17.74 18.86L17.74 22L16.26 22L16.26 18.86ZM24.25 18.00L24.25 18.00L24.25 17.52Q24.25 16.28 24.69 15.32Q25.13 14.37 25.94 13.86Q26.74 13.35 27.79 13.35Q28.83 13.35 29.64 13.85Q30.44 14.35 30.88 15.29Q31.32 16.23 31.33 17.48L31.33 17.48L31.33 17.96Q31.33 19.21 30.89 20.16Q30.46 21.10 29.65 21.61Q28.85 22.12 27.80 22.12L27.80 22.12Q26.76 22.12 25.95 21.61Q25.14 21.10 24.70 20.17Q24.25 19.23 24.25 18.00ZM25.73 17.46L25.73 17.96Q25.73 19.36 26.28 20.13Q26.83 20.90 27.80 20.90L27.80 20.90Q28.78 20.90 29.31 20.15Q29.84 19.40 29.84 17.96L29.84 17.96L29.84 17.51Q29.84 16.09 29.31 15.34Q28.77 14.58 27.79 14.58L27.79 14.58Q26.83 14.58 26.28 15.33Q25.74 16.09 25.73 17.46L25.73 17.46ZM35.66 19.16L35.66 19.16L35.66 13.47L37.13 13.47L37.13 19.18Q37.13 20.03 37.57 20.48Q38.00 20.93 38.84 20.93L38.84 20.93Q40.56 20.93 40.56 19.13L40.56 19.13L40.56 13.47L42.03 13.47L42.03 19.17Q42.03 20.53 41.16 21.32Q40.29 22.12 38.84 22.12L38.84 22.12Q37.38 22.12 36.52 21.33Q35.66 20.55 35.66 19.16ZM52.31 18.19L52.31 18.19L52.31 17.39Q52.31 16.19 52.74 15.27Q53.16 14.35 53.96 13.85Q54.76 13.35 55.81 13.35L55.81 13.35Q57.23 13.35 58.09 14.12Q58.95 14.89 59.09 16.29L59.09 16.29L57.61 16.29Q57.51 15.37 57.08 14.96Q56.64 14.55 55.81 14.55L55.81 14.55Q54.85 14.55 54.33 15.26Q53.81 15.96 53.80 17.33L53.80 17.33L53.80 18.09Q53.80 19.47 54.29 20.20Q54.79 20.92 55.74 20.92L55.74 20.92Q56.62 20.92 57.06 20.53Q57.49 20.14 57.61 19.22L57.61 19.22L59.09 19.22Q58.96 20.59 58.08 21.35Q57.20 22.12 55.74 22.12L55.74 22.12Q54.72 22.12 53.95 21.63Q53.17 21.15 52.75 20.26Q52.33 19.37 52.31 18.19ZM64.18 22L62.64 22L65.86 13.47L67.19 13.47L70.42 22L68.87 22L68.18 20.01L64.87 20.01L64.18 22ZM66.52 15.28L65.29 18.82L67.76 18.82L66.52 15.28ZM75.86 22L74.38 22L74.38 13.47L75.86 13.47L79.67 19.54L79.67 13.47L81.14 13.47L81.14 22L79.66 22L75.86 15.95L75.86 22Z" fill="#FFFFFF"/><path class="svg__text" d="M110.14 22L107.94 22L107.94 13.60L109.89 13.60L112.85 18.45L115.73 13.60L117.68 13.60L117.71 22L115.53 22L115.50 17.55L113.34 21.17L112.29 21.17L110.14 17.67L110.14 22ZM125.25 22L122.87 22L122.87 13.60L125.25 13.60L125.25 22ZM136.81 22L130.42 22L130.42 13.60L132.80 13.60L132.80 20.11L136.81 20.11L136.81 22ZM143.58 22L141.22 22L141.22 13.60L143.58 13.60L143.58 17.09L146.83 13.60L149.45 13.60L146.02 17.32L149.63 22L146.87 22L144.47 18.95L143.58 19.90L143.58 22ZM162.50 15.48L159.92 15.48L159.92 13.60L167.44 13.60L167.44 15.48L164.87 15.48L164.87 22L162.50 22L162.50 15.48ZM174.19 22L171.81 22L171.81 13.60L174.19 13.60L174.19 16.76L177.43 16.76L177.43 13.60L179.80 13.60L179.80 22L177.43 22L177.43 18.72L174.19 18.72L174.19 22ZM187.34 22L184.97 22L184.97 13.60L187.34 13.60L187.34 22ZM191.93 21.24L191.93 21.24L192.71 19.49Q193.27 19.86 194.02 20.09Q194.76 20.32 195.48 20.32L195.48 20.32Q196.85 20.32 196.85 19.64L196.85 19.64Q196.85 19.28 196.46 19.11Q196.07 18.93 195.21 18.74L195.21 18.74Q194.26 18.53 193.62 18.30Q192.99 18.06 192.53 17.55Q192.08 17.03 192.08 16.16L192.08 16.16Q192.08 15.39 192.50 14.77Q192.92 14.15 193.75 13.79Q194.59 13.43 195.79 13.43L195.79 13.43Q196.62 13.43 197.43 13.62Q198.23 13.80 198.85 14.17L198.85 14.17L198.11 15.93Q196.91 15.28 195.78 15.28L195.78 15.28Q195.07 15.28 194.75 15.49Q194.43 15.70 194.43 16.04L194.43 16.04Q194.43 16.37 194.81 16.54Q195.20 16.71 196.05 16.89L196.05 16.89Q197.01 17.10 197.64 17.33Q198.27 17.56 198.73 18.07Q199.19 18.58 199.19 19.46L199.19 19.46Q199.19 20.21 198.77 20.83Q198.35 21.44 197.51 21.80Q196.67 22.17 195.47 22.17L195.47 22.17Q194.45 22.17 193.49 21.92Q192.53 21.67 191.93 21.24Z" fill="#FFFFFF" x="106.75"/></svg>